# xmcd CD database file
#
# Track frame offsets:
#	150
#	22977
#	58397
#	76287
#	94165
#	108260
#	127560
#	140752
#	155420
#	178180
#	192900
#	208665
#	229222
#	245677
#	267100
#
# Disc length: 3743 seconds
#
# Revision: 1
# Processed by: cddbd v1.5.2PL0 Copyright (c) Steve Scherf et al.
# Submitted via: CDex 1.70beta2
#
DISCID=ce0e9d0f
DTITLE=Ahmad Jamal Trio - Ahmad's blues - Les genies du jazz vol6  12
DYEAR=1900
DGENRE=Blues
TTITLE0=This can't be love
TTITLE1=Autumn leaves
TTITLE2=Ahmad's blues
TTITLE3=Old devil moon
TTITLE4=Seleriters
TTITLE5=It could happen to you
TTITLE6=Ivy
TTITLE7=Tater pie
TTITLE8=Let's fall in love
TTITLE9=Brother and sister
TTITLE10=You don't know what time it was
TTITLE11=I didn't know what time it was
TTITLE12=So beats my heart for you
TTITLE13=Sal in calico
TTITLE14=Our delight
EXTD=
EXTT0=
EXTT1=
EXTT2=
EXTT3=
EXTT4=
EXTT5=
EXTT6=
EXTT7=
EXTT8=
EXTT9=
EXTT10=
EXTT11=
EXTT12=
EXTT13=
EXTT14=
PLAYORDER=
